<svg xmlns="http://www.w3.org/2000/svg" width="151" height="151" viewBox="0 0 151 151">
    <g fill="none" fill-rule="evenodd">
        <path fill="#EFA92C" d="M111.605 9.176C99.992 10.603 91 20.501 91 32.5 91 45.479 101.521 56 114.5 56c12.772 0 23.164-10.188 23.492-22.88C146.202 45.201 151 59.79 151 75.5c0 41.697-33.803 75.5-75.5 75.5S0 117.197 0 75.5 33.803 0 75.5 0c13.078 0 25.38 3.325 36.105 9.176z"/>
        <path fill="#EFA92C" d="M130 51.226c-3.82 2.824-10.227 6.044-15.34 6.044C101.944 57.27 90 45.484 90 32.74c0-2.847 1.938-7.22 2.88-9.74-9.203-.012-15.2-7.046-15.2-16.271 0-2.3.465-4.492 1.304-6.487a76.358 76.358 0 0 0-3.502-.084C33.844.158.09 33.91.09 75.544c0 41.634 33.754 75.386 75.392 75.386s75.394-33.752 75.394-75.386c0-4.347-.374-8.605-1.08-12.75a16.66 16.66 0 0 1-3.938.473c-7.986 0-12.406-5.766-14.044-13.277M98.457 11.89a3.12 3.12 0 0 0 3.116-3.122 3.12 3.12 0 0 0-3.116-3.123 3.12 3.12 0 0 0-3.117 3.123 3.12 3.12 0 0 0 3.117 3.123"/>
        <path fill="#EFA92C" d="M105.423 27.538a3.12 3.12 0 0 0 3.116-3.124 3.12 3.12 0 0 0-3.116-3.122 3.12 3.12 0 0 0-3.117 3.122 3.12 3.12 0 0 0 3.117 3.124M117.68 25.15a4.992 4.992 0 0 0 4.987-4.997 4.992 4.992 0 0 0-4.986-4.997 4.991 4.991 0 0 0-4.986 4.997 4.991 4.991 0 0 0 4.986 4.996"/>
        <path fill="#E4E4E3" d="M37.586 90v9.326c0 2.347-.37 4.107-1.112 5.28-1.379 2.182-3.346 3.274-5.898 3.274-2.471 0-4.397-1.071-5.777-3.212-.76-1.194-1.142-2.985-1.142-5.374V90l-9.43-13.897c-.924-1.358-1.387-2.778-1.387-4.26 0-1.544.515-2.945 1.54-4.2 1.378-1.688 3.164-2.533 5.363-2.533 2.568 0 4.591 1.091 6.072 3.273l4.898 7.196 5.148-7.38c1.437-2.06 3.4-3.089 5.885-3.089 1.89 0 3.517.675 4.885 2.023 1.367 1.349 2.05 2.97 2.05 4.864 0 1.42-.441 2.758-1.322 4.014L37.586 90zM64.274 73.323v16.584c0 3.212 1.283 4.817 3.851 4.817s3.852-1.544 3.852-4.632v-16.8c0-1.543.042-2.542.124-2.994.164-.866.607-1.73 1.325-2.595 1.397-1.729 3.184-2.594 5.362-2.594 2.198 0 4.006.845 5.424 2.533 1.088 1.296 1.633 3.53 1.633 6.7v14.886c0 5.517-1.46 9.943-4.375 13.278-3.638 4.138-8.085 6.208-13.345 6.208-3.225 0-6.266-.866-9.12-2.595-3.638-2.203-6.174-5.352-7.613-9.45-.657-1.872-.987-4.354-.987-7.441V74.343c0-1.73.042-2.871.125-3.428a6.528 6.528 0 0 1 1.356-3.088c1.417-1.812 3.245-2.718 5.484-2.718 1.993 0 3.688.732 5.085 2.192 1.212 1.257 1.82 3.264 1.82 6.022M114.474 83.73l6.995-14.915c1.151-2.47 3.195-3.706 6.132-3.706 3.863 0 6.174 2.162 6.934 6.486l4.838 27.174c.145.804.216 1.596.216 2.379 0 1.893-.663 3.488-1.988 4.786-1.324 1.297-2.942 1.946-4.853 1.946-1.705 0-3.195-.474-4.468-1.421-1.275-.947-2.076-2.243-2.403-3.89l-1.542-7.906-2.743 7.473c-1.397 3.829-3.77 5.744-7.118 5.744-3.308 0-5.661-1.895-7.057-5.682l-2.774-7.535-1.14 6.73c-.33 1.958-1.058 3.47-2.187 4.541-1.358 1.297-2.94 1.946-4.746 1.946-2.486 0-4.408-.979-5.763-2.934-.844-1.214-1.264-2.759-1.264-4.632 0-.557.051-1.122.154-1.699l4.746-27.02c.329-1.895 1.068-3.417 2.219-4.57 1.232-1.277 2.774-1.916 4.622-1.916 1.5 0 2.882.428 4.146 1.283a7.821 7.821 0 0 1 2.819 3.35l6.225 13.989z"/>
        <path fill="#FFFFFE" d="M37.586 87.158v9.326c0 2.347-.37 4.106-1.112 5.28-1.379 2.183-3.346 3.274-5.898 3.274-2.471 0-4.397-1.07-5.777-3.212-.76-1.193-1.142-2.985-1.142-5.374v-9.294l-9.43-13.897C13.304 71.9 12.84 70.48 12.84 69c0-1.545.515-2.945 1.54-4.2 1.378-1.688 3.164-2.532 5.363-2.532 2.568 0 4.591 1.09 6.072 3.273l4.898 7.195 5.148-7.38c1.437-2.059 3.4-3.088 5.885-3.088 1.89 0 3.517.674 4.885 2.022 1.367 1.349 2.05 2.97 2.05 4.864 0 1.42-.441 2.76-1.322 4.015l-9.773 13.989zM64.274 70.482v16.583c0 3.212 1.283 4.817 3.851 4.817s3.852-1.544 3.852-4.631v-16.8c0-1.544.042-2.543.124-2.995.164-.865.607-1.73 1.325-2.595 1.397-1.73 3.184-2.594 5.362-2.594 2.198 0 4.006.845 5.424 2.533 1.088 1.297 1.633 3.53 1.633 6.7v14.885c0 5.518-1.46 9.944-4.375 13.28-3.638 4.137-8.085 6.206-13.345 6.206-3.225 0-6.266-.864-9.12-2.594-3.638-2.203-6.174-5.351-7.613-9.45-.657-1.872-.987-4.354-.987-7.442V71.501c0-1.73.042-2.872.125-3.428a6.523 6.523 0 0 1 1.356-3.088c1.417-1.811 3.245-2.718 5.484-2.718 1.993 0 3.688.732 5.085 2.193 1.212 1.256 1.82 3.263 1.82 6.022M114.474 80.889l6.995-14.916c1.151-2.47 3.195-3.705 6.132-3.705 3.863 0 6.174 2.161 6.934 6.485l4.838 27.175c.145.803.216 1.595.216 2.378 0 1.894-.663 3.489-1.988 4.786-1.324 1.298-2.942 1.946-4.853 1.946-1.705 0-3.195-.474-4.468-1.42-1.275-.948-2.076-2.245-2.403-3.892l-1.542-7.906-2.743 7.474c-1.397 3.829-3.77 5.744-7.118 5.744-3.308 0-5.661-1.895-7.057-5.683l-2.774-7.535-1.14 6.732c-.33 1.957-1.058 3.47-2.187 4.54-1.358 1.298-2.94 1.946-4.746 1.946-2.486 0-4.408-.978-5.763-2.934-.844-1.214-1.264-2.758-1.264-4.632 0-.556.051-1.122.154-1.698l4.746-27.02c.329-1.896 1.068-3.418 2.219-4.572 1.232-1.276 2.774-1.914 4.622-1.914 1.5 0 2.882.427 4.146 1.282a7.826 7.826 0 0 1 2.819 3.35l6.225 13.989z"/>
    </g>
</svg>
